<?xml version="1.0" standalone="no"?><!DOCTYPE svg PUBLIC "-//W3C//DTD SVG 1.1//EN" "http://www.w3.org/Graphics/SVG/1.1/DTD/svg11.dtd"><svg t="1639627879008" class="icon" viewBox="0 0 1024 1024" version="1.1" xmlns="http://www.w3.org/2000/svg" p-id="6940" xmlns:xlink="http://www.w3.org/1999/xlink" width="200" height="200"><defs><style type="text/css"></style></defs><path d="M724.16 631.872c82.368 0 161.28-55.68 235.52-164.736l-61.44-51.072c-62.72 89.344-120.704 134.592-174.08 134.592-44.16 0-98.688-19.712-163.648-56.832-38.336-23.232-75.52-44.096-110.272-63.808-51.072-25.536-98.688-37.12-141.632-37.12-88.192 0-169.408 53.376-244.864 161.28l62.72 49.92c61.44-85.888 121.792-128.832 182.144-128.832 35.968 0 77.76 11.584 124.16 35.968 34.88 19.712 72 41.792 110.336 64.96 67.264 37.12 127.616 55.68 181.056 55.68z" p-id="6941" fill="#d81e06"></path></svg>