<?xml version="1.0" standalone="no"?><!DOCTYPE svg PUBLIC "-//W3C//DTD SVG 1.1//EN" "http://www.w3.org/Graphics/SVG/1.1/DTD/svg11.dtd"><svg t="1639627226698" class="icon" viewBox="0 0 1024 1024" version="1.1" xmlns="http://www.w3.org/2000/svg" p-id="3085" xmlns:xlink="http://www.w3.org/1999/xlink" width="200" height="200"><defs><style type="text/css"></style></defs><path d="M499.324627 624.716418c-71.450746 0-138.602985-27.797015-189.134328-78.328358-50.531343-50.531343-78.328358-117.683582-78.328359-189.134329s27.797015-138.602985 78.328359-189.134328c50.531343-50.531343 117.683582-78.328358 189.134328-78.328358s138.602985 27.797015 189.134328 78.328358c50.531343 50.531343 78.328358 117.683582 78.328358 189.134328s-27.797015 138.602985-78.328358 189.134329c-50.531343 50.531343-117.683582 78.328358-189.134328 78.328358z m0-489.074627c-59.223881 0-114.81791 23.020896-156.656717 64.955224-41.838806 41.838806-64.955224 97.528358-64.955223 156.656716s23.020896 114.81791 64.955223 156.656717c41.838806 41.838806 97.528358 64.955224 156.656717 64.955224 59.223881 0 114.81791-23.020896 156.656716-64.955224s64.955224-97.528358 64.955224-156.656717-23.020896-114.81791-64.955224-156.656716c-41.838806-41.934328-97.432836-64.955224-156.656716-64.955224z" fill="#d81e06" p-id="3086"></path><path d="M499.324627 135.641791c-12.704478 0-22.925373-10.220896-22.925373-22.925373V22.925373c0-12.704478 10.220896-22.925373 22.925373-22.925373s22.925373 10.220896 22.925373 22.925373v89.791045c0 12.704478-10.220896 22.925373-22.925373 22.925373zM499.802239 448.955224c-12.704478 0-22.925373-10.220896-22.925373-22.925373V280.549254c0-12.704478 10.220896-22.925373 22.925373-22.925373s22.925373 10.220896 22.925373 22.925373V426.029851c0 12.704478-10.220896 22.925373-22.925373 22.925373z" fill="#d81e06" p-id="3087"></path><path d="M502.381343 302.80597c-7.164179 0-14.232836-3.343284-18.722388-9.743283-7.259701-10.316418-4.871642-24.644776 5.540299-32l97.337313-68.77612c10.316418-7.259701 24.644776-4.871642 32 5.540299 7.259701 10.316418 4.871642 24.644776-5.540298 32l-97.337314 68.776119c-4.107463 2.865672-8.692537 4.202985-13.277612 4.202985z" fill="#d81e06" p-id="3088"></path><path d="M496.26791 302.80597c-4.585075 0-9.170149-1.337313-13.182089-4.202985l-97.337314-68.776119c-10.316418-7.259701-12.8-21.58806-5.540298-32 7.259701-10.316418 21.58806-12.8 32-5.540299l97.337313 68.77612c10.316418 7.259701 12.8 21.58806 5.540299 32-4.585075 6.4-11.653731 9.743284-18.817911 9.743283zM254.787313 1024c-12.704478 0-22.925373-10.220896-22.925373-22.925373v-89.791045c0-12.704478 10.220896-22.925373 22.925373-22.925373s22.925373 10.220896 22.925374 22.925373v89.791045c0 12.704478-10.220896 22.925373-22.925374 22.925373z" fill="#d81e06" p-id="3089"></path><path d="M294.524627 934.208955c-71.450746 0-138.602985-27.797015-189.134328-78.328358-50.531343-50.531343-78.328358-117.683582-78.328359-189.134328s27.797015-138.602985 78.328359-189.134329c50.531343-50.531343 117.683582-78.328358 189.134328-78.328358s138.602985 27.797015 189.134328 78.328358c50.531343 50.531343 78.328358 117.683582 78.328358 189.134329s-27.797015 138.602985-78.328358 189.134328c-50.531343 50.531343-117.683582 78.328358-189.134328 78.328358z m0-489.074627c-59.223881 0-114.81791 23.020896-156.656717 64.955224-41.838806 41.838806-64.955224 97.528358-64.955223 156.656717s23.020896 114.81791 64.955223 156.656716 97.528358 64.955224 156.656717 64.955224c59.223881 0 114.81791-23.020896 156.656716-64.955224 41.838806-41.838806 64.955224-97.528358 64.955224-156.656716s-23.020896-114.81791-64.955224-156.656717c-41.838806-41.934328-97.432836-64.955224-156.656716-64.955224zM740.23209 851.391045c-12.704478 0-22.925373-10.220896-22.925374-22.925373V682.985075c0-12.704478 10.220896-22.925373 22.925374-22.925374s22.925373 10.220896 22.925373 22.925374v145.480597c0 12.704478-10.220896 22.925373-22.925373 22.925373z" fill="#d81e06" p-id="3090"></path><path d="M742.811194 705.241791c-7.164179 0-14.232836-3.343284-18.722388-9.743284-7.259701-10.316418-4.871642-24.644776 5.540298-32l97.337314-68.776119c10.316418-7.259701 24.644776-4.871642 32 5.540299 7.259701 10.316418 4.871642 24.644776-5.540299 32l-97.337313 68.776119c-4.01194 2.865672-8.692537 4.202985-13.277612 4.202985z" fill="#d81e06" p-id="3091"></path><path d="M736.697761 705.241791c-4.585075 0-9.170149-1.337313-13.182089-4.202985l-97.337314-68.776119c-10.316418-7.259701-12.8-21.58806-5.540298-32 7.259701-10.316418 21.58806-12.8 32-5.540299l97.337313 68.776119c10.316418 7.259701 12.8 21.58806 5.540299 32-4.585075 6.4-11.653731 9.743284-18.817911 9.743284z" fill="#d81e06" p-id="3092"></path><path d="M701.354478 934.208955c-71.450746 0-138.602985-27.797015-189.134329-78.328358-50.531343-50.531343-78.328358-117.683582-78.328358-189.134328s27.797015-138.602985 78.328358-189.134329c50.531343-50.531343 117.683582-78.328358 189.134329-78.328358s138.602985 27.797015 189.134328 78.328358c50.531343 50.531343 78.328358 117.683582 78.328358 189.134329s-27.797015 138.602985-78.328358 189.134328c-50.531343 50.531343-117.683582 78.328358-189.134328 78.328358z m0-489.074627c-59.223881 0-114.81791 23.020896-156.656717 64.955224-41.838806 41.838806-64.955224 97.528358-64.955224 156.656717s23.020896 114.81791 64.955224 156.656716c41.838806 41.838806 97.528358 64.955224 156.656717 64.955224s114.81791-23.020896 156.656716-64.955224 64.955224-97.528358 64.955224-156.656716-23.020896-114.81791-64.955224-156.656717c-41.838806-41.934328-97.528358-64.955224-156.656716-64.955224z" fill="#d81e06" p-id="3093"></path><path d="M701.354478 1024c-12.704478 0-22.925373-10.220896-22.925374-22.925373v-89.791045c0-12.704478 10.220896-22.925373 22.925374-22.925373s22.925373 10.220896 22.925373 22.925373v89.791045c0 12.704478-10.316418 22.925373-22.925373 22.925373zM397.211194 778.602985h-205.373134c-8.214925 0-15.761194-4.39403-19.868657-11.462686s-4.107463-15.856716 0-22.925374l102.686567-177.862686c4.107463-7.068657 11.653731-11.462687 19.868657-11.462687s15.761194 4.39403 19.868657 11.462687l102.686567 177.862686c4.107463 7.068657 4.107463 15.856716 0 22.925374s-11.653731 11.462687-19.868657 11.462686z m-165.635821-45.850746h125.99403l-62.949254-109.086567-63.044776 109.086567z" fill="#d81e06" p-id="3094"></path></svg>