<?xml version="1.0" standalone="no"?><!DOCTYPE svg PUBLIC "-//W3C//DTD SVG 1.1//EN" "http://www.w3.org/Graphics/SVG/1.1/DTD/svg11.dtd"><svg t="1639627461465" class="icon" viewBox="0 0 1024 1024" version="1.1" xmlns="http://www.w3.org/2000/svg" p-id="4205" xmlns:xlink="http://www.w3.org/1999/xlink" width="200" height="200"><defs><style type="text/css"></style></defs><path d="M512 934.208955c-71.450746 0-138.602985-27.797015-189.134328-78.328358-50.531343-50.531343-78.328358-117.683582-78.328359-189.134328s27.797015-138.602985 78.328359-189.134329c50.531343-50.531343 117.683582-78.328358 189.134328-78.328358s138.602985 27.797015 189.134328 78.328358c50.531343 50.531343 78.328358 117.683582 78.328359 189.134329s-27.797015 138.602985-78.328359 189.134328c-50.531343 50.531343-117.683582 78.328358-189.134328 78.328358z m0-489.074627c-59.223881 0-114.81791 23.020896-156.656716 64.955224-41.838806 41.838806-64.955224 97.528358-64.955224 156.656717s23.020896 114.81791 64.955224 156.656716c41.838806 41.838806 97.528358 64.955224 156.656716 64.955224 59.223881 0 114.81791-23.020896 156.656716-64.955224s64.955224-97.528358 64.955224-156.656716-23.020896-114.81791-64.955224-156.656717c-41.838806-41.934328-97.432836-64.955224-156.656716-64.955224z" fill="#d81e06" p-id="4206"></path><path d="M512 1024c-12.704478 0-22.925373-10.220896-22.925373-22.925373v-89.791045c0-12.704478 10.220896-22.925373 22.925373-22.925373s22.925373 10.220896 22.925373 22.925373v89.791045c0 12.704478-10.220896 22.925373-22.925373 22.925373zM512 624.716418c-71.450746 0-138.602985-27.797015-189.134328-78.328358-50.531343-50.531343-78.328358-117.683582-78.328359-189.134329s27.797015-138.602985 78.328359-189.134328c50.531343-50.531343 117.683582-78.328358 189.134328-78.328358s138.602985 27.797015 189.134328 78.328358c50.531343 50.531343 78.328358 117.683582 78.328359 189.134328s-27.797015 138.602985-78.328359 189.134329c-50.531343 50.531343-117.683582 78.328358-189.134328 78.328358z m0-489.074627c-59.223881 0-114.81791 23.020896-156.656716 64.955224-41.838806 41.838806-64.955224 97.528358-64.955224 156.656716s23.020896 114.81791 64.955224 156.656717c41.838806 41.838806 97.528358 64.955224 156.656716 64.955224 59.223881 0 114.81791-23.020896 156.656716-64.955224s64.955224-97.528358 64.955224-156.656717-23.020896-114.81791-64.955224-156.656716c-41.838806-41.934328-97.432836-64.955224-156.656716-64.955224z" fill="#d81e06" p-id="4207"></path><path d="M512 135.641791c-12.704478 0-22.925373-10.220896-22.925373-22.925373V22.925373c0-12.704478 10.220896-22.925373 22.925373-22.925373s22.925373 10.220896 22.925373 22.925373v89.791045c0 12.704478-10.220896 22.925373-22.925373 22.925373zM512.477612 880.81194c-12.704478 0-22.925373-10.220896-22.925373-22.925373V712.40597c0-12.704478 10.220896-22.925373 22.925373-22.925373s22.925373 10.220896 22.925373 22.925373v145.480597c0 12.704478-10.316418 22.925373-22.925373 22.925373z" fill="#d81e06" p-id="4208"></path><path d="M515.152239 734.662687c-7.164179 0-14.232836-3.343284-18.722388-9.647762-7.355224-10.316418-4.871642-24.644776 5.444776-32l97.337313-68.776119c10.316418-7.355224 24.644776-4.871642 32 5.444776s4.871642 24.644776-5.444776 32l-97.337313 68.776119c-4.107463 2.865672-8.78806 4.202985-13.277612 4.202986z" fill="#d81e06" p-id="4209"></path><path d="M508.847761 734.662687c-4.585075 0-9.170149-1.337313-13.182089-4.202986l-97.337314-68.776119c-10.316418-7.355224-12.8-21.58806-5.444776-32 7.355224-10.316418 21.58806-12.8 32-5.444776l97.337314 68.776119c10.316418 7.355224 12.8 21.58806 5.444776 32-4.489552 6.304478-11.558209 9.647761-18.817911 9.647762zM614.686567 380.370149h-205.373134c-8.214925 0-15.761194-4.39403-19.868657-11.462686s-4.107463-15.856716 0-22.925373L492.131343 168.119403c4.107463-7.068657 11.653731-11.462687 19.868657-11.462687s15.761194 4.39403 19.868657 11.462687l102.686567 177.862687c4.107463 7.068657 4.107463 15.856716 0 22.925373s-11.653731 11.462687-19.868657 11.462686z m-165.635821-45.850746h125.898508L512 225.432836l-62.949254 109.086567z" fill="#d81e06" p-id="4210"></path></svg>